# xmcd
#
# Track frame offsets:
#	150
#	11143
#	26138
#	42680
#	57990
#	77175
#	92123
#	110448
#	124525
#	138585
#
# Disc length: 2042 seconds
#
# Revision: 2
# Processed by: cddbd v1.5.2PL0 Copyright (c) Steve Scherf et al.
# Submitted via: audiograbber 1.83.01
#
DISCID=8b07f80a
DTITLE=Various Artist - Time-Life - Hits From The Heart - Great Country Love S
DTITLE=ongs
DYEAR=1991
DGENRE=Oldies
TTITLE0=Patty Loveless - A Little Bit In Love
TTITLE1=Conway Twitty - I'd Love To Lay You Down
TTITLE2=Don Williams - Love Is On A Roll
TTITLE3=John Schneider - What's A Memory Like You Doin' In A Place Like This
TTITLE4=Vince Gill - When I Call Your Name
TTITLE5=John Conlee - I'm Only In It For The Love
TTITLE6=Steve Wariner - You Can Dream Of Me
TTITLE7=Barbara Mandell - If Lovin' You Is Wrong, I Don't Want To Be Right
TTITLE8=Desert Rose Band  - He's Back And I'm Blue
TTITLE9=Merle Haggard - If We're Not Back In Love By Monday
EXTD=
EXTT0=
EXTT1=
EXTT2=
EXTT3=
EXTT4=
EXTT5=
EXTT6=
EXTT7=
EXTT8=
EXTT9=
PLAYORDER=
